<svg xmlns="http://www.w3.org/2000/svg" viewBox="0 0 350 46">
  <path fill="#00A499" class="mark" d="m122.1849,37.95576c-1.41795-.02495-2.60754-1.19471-2.60754-2.63828v-19.08987c0-1.44357-1.18959-2.58849-2.60657-2.63828h-8.02407c-1.5446,0-2.22764,1.54314-2.22764,1.56803,0-1.44357-.75979-1.56803-2.22758-1.56803h-8.02438c-1.29105,0-2.22758,1.26932-2.22758,1.26932v-1.26932h-6.27754v21.75309c0,1.44345-1.18972,2.61332-2.68325,2.63815h-6.42945c-1.4681-.02483-2.65775-1.19471-2.68313-2.63815v-19.11482c.02538-1.44357-1.13902-2.58849-2.60724-2.63828h-21.64233v6.24717h15.36479c1.44284,0,2.63255,1.16975,2.60724,2.5636v.67197c.02532,1.44357-1.24035,2.63828-2.68313,2.63828h-15.44081c-1.46822,0-2.63255,1.1448-2.60724,2.56354v7.06855c-.02532,1.41862-1.21503,2.61332-2.68313,2.63815h-2.68325c-1.44278-.02483-2.5818-1.19471-2.60711-2.63815V13.61418h-6.35355v21.72826c.02532,1.44345-1.11376,2.61332-2.60717,2.63815l-4.5817-.07462v-9.63209c0-1.39378-1.18972-2.56354-2.60717-2.56354H8.85951c-1.44284,0-2.60724-1.16988-2.60724-2.5636v-.74665c0-1.39384,1.1644-2.5636,2.60724-2.5636h18.8833v-6.24717H2.60724c-1.44284.04978-2.60724,1.19471-2.60724,2.63828v13.68892s.17723.896.60752,1.34406c.43035.37332,1.54405.67197,1.51879.67197h16.68104c1.46822,0,2.65793,1.14492,2.68325,2.5636v.82132c0,1.41868-1.18972,2.61332-2.68325,2.63828H0v6.17243h25.54061c1.46816,0,2.2022-.32354,2.22758-1.71738,0,1.39384.75931,1.74234,2.22752,1.71738h17.06075c1.4429,0,2.17689-.32354,2.22752-1.71738-.02532,1.41874.73411,1.74234,2.15169,1.71738h22.6295c1.41758,0,2.15169-.32354,2.15169-1.71738,0,1.41874.75931,1.74234,2.22752,1.71738h13.28924c1.41746,0,2.60711-1.14492,2.60711-2.56354v-21.72814h3.82227c1.46816,0,2.63298,1.16975,2.68289,2.5636v21.72808h6.35379v-24.29168h3.519c1.44186,0,2.60651,1.16975,2.60651,2.5636v19.16454c0,1.41862,1.18966,2.58849,2.68337,2.56354h19.18718v-6.17243h-13.01086Zm-52.22031-2.63828c0,1.44357-1.16446,2.61332-2.60724,2.63828h-9.23917c-1.44278-.02495-2.63249-1.19471-2.60717-2.63828v-.82132c-.05064-1.41868,1.13902-2.58843,2.60717-2.5636h9.23917c1.4681,0,2.63249,1.14492,2.60724,2.5636v.82132ZM34.93181,8.96006l-1.97446-8.96006h9.94796l-1.62007,8.96006h-6.35343Zm105.60464,29.39398c-1.64526,0-3.03728,1.24443-3.03728,2.93686s1.39202,2.96187,3.03728,2.96187,3.03734-1.24443,3.03734-2.96187c0-1.71726-1.39202-2.93686-3.03734-2.93686Zm0,5.40095c-1.36707,0-2.43001-1.04529-2.43001-2.46409,0-1.39372,1.06294-2.43914,2.43001-2.43914s2.43007,1.04541,2.43007,2.43914c0,1.39384-1.06294,2.46409-2.43007,2.46409Zm1.36713-3.18578c0-.67203-.40485-.97074-1.21552-.97074h-1.31625v3.40987h.53144v-1.46852h.60831l.9114,1.46852h.58135l-.98723-1.49335c.50655-.04985.88651-.3236.88651-.94578Zm-2.00033.52262v-1.04535h.70903c.35494,0,.75979.07468.75979.49778,0,.52274-.40485.54757-.83563.54757h-.6332Z" />
  <rect fill="#00A499" class="pipe" x="149.39615" y="13.11652" width=".60861" height="31.06164"/>

  <path fill="#00A499" class="name" d="m157.26868,23.14657h-.58232v-1.26926h1.94939c0,.54751.04991.94566.1765,1.16975.12665.22397.30412.42305.50655.57246.22835.14923.48062.27369.75985.34837.30315.07468.63217.12446.98717.12446.35397,0,.65815-.04978.93635-.12446s.50655-.19914.70897-.34837c.20242-.14941.35397-.34849.45567-.54757.10073-.22403.15161-.448.15161-.72181,0-.29865-.07583-.54757-.20242-.7716-.12665-.19902-.30418-.39815-.50655-.52262-.20242-.14935-.4298-.27381-.68305-.37332-.2533-.09963-.48166-.17418-.70903-.24886l-1.69614-.44806c-.3799-.09963-.70897-.24886-1.01206-.42311-.30418-.17425-.55743-.37332-.78481-.62218-.22835-.24892-.3799-.52274-.50655-.84628-.12665-.3236-.17747-.69692-.17747-1.12003,0-.42305.07675-.82132.25324-1.19465.17753-.37338.43078-.69692.75985-.99557.32908-.27375.75882-.49778,1.24047-.67197.48062-.17425,1.06294-.24892,1.69517-.24892.40582,0,.81067.04978,1.13969.14929.35403.09963.68305.22403.9613.39828.27917.17418.53248.37332.75979.62218.22738.24892.40485.49778.55645.79643h.58232v1.26938h-1.89857c0-.42311-.07583-.74665-.25233-.97062l.07583-.02495c-.15258-.22397-.355-.37332-.5315-.49778-.20242-.1244-.40485-.19914-.65809-.27381-.22835-.07456-.48166-.09951-.70897-.09951-.37996,0-.73393.04978-1.01316.12446-.30309.07468-.53144.19914-.73387.34837-.20242.14941-.32908.3236-.4298.52274-.1017.19914-.15252.39828-.15252.62225,0,.32354.05082.59735.17747.79637.12665.19914.2782.37338.45567.47295.17753.12446.37996.22397.60727.27375.22835.07468.43078.14935.6332.19914l1.54356.49778c.45573.14935.88651.29865,1.24047.49772.355.17425.65815.39828.9114.6472.2533.24886.43078.54751.55743.87111.12665.32354.1765.69686.1765,1.14492,0,.44788-.10073.89594-.30315,1.29421-.20242.39822-.4816.74665-.83563,1.02046-.35397.29865-.78475.52262-1.26537.67197-.48166.17418-1.03805.24892-1.62037.24892s-1.11382-.07474-1.54356-.19914c-.43078-.12446-.78481-.29865-1.06398-.52274-.30315-.22397-.5315-.47283-.68305-.74665-.17753-.27375-.30412-.5724-.40485-.87111Zm9.08701-.07437c-.20242-.49778-.30412-1.04541-.30412-1.64271v-.02495c0-.59729.1017-1.1448.30412-1.64258s.48062-.92101.83563-1.29434c.35397-.34837.78475-.62218,1.26537-.82132.48062-.19908,1.01212-.29865,1.62037-.29865.60727,0,1.13878.09957,1.6194.29865.4816.19914.9114.47295,1.2664.82132.35397.34849.60721.7716.80964,1.26938s.30315,1.04529.30315,1.64271c0,.59729-.10073,1.1448-.30315,1.64258s-.45567.92101-.80964,1.29434c-.355.34837-.75985.64702-1.2664.84615-.48062.19914-1.03805.29865-1.6194.29865-.58232,0-1.13975-.09951-1.64526-.29865-.48166-.19914-.9114-.47283-1.2664-.82132-.35397-.34843-.60727-.77154-.8097-1.26926Zm1.21455-1.64271c0,.448.05088.84615.2034,1.19465.12568.34843.30315.64708.5315.89594.22738.24892.50557.44806.78475.57246.30315.12446.60727.19914.96124.19914.355,0,.68408-.07468.98717-.19914.30418-.1244.58238-.32354.81073-.57246.22732-.24886.40485-.54751.53144-.89594.12665-.34849.20242-.74665.20242-1.19465,0-.44806-.07577-.87111-.20242-1.24449-.12659-.37332-.30412-.67197-.53144-.896-.22835-.24892-.48166-.42311-.81073-.54757-.30309-.1244-.63217-.17418-.98717-.17418-.35397,0-.65809.07456-.96124.17418-.30412.12446-.55737.29865-.78475.54757-.22835.24886-.40582.54751-.5315.896-.12659.34843-.2034.77154-.2034,1.24449Zm12.88518,3.85763c.32908-.07468.65809-.22403.93635-.39822.2782-.17425.53144-.39822.75882-.64708.22835-.24886.43078-.52268.58232-.84628l-1.18959-.57246c-.20242.448-.50655.79649-.86052,1.02046-.35403.22397-.78481.34843-1.29135.34843-.32902,0-.65809-.07462-.93629-.19902-.2782-.14941-.5315-.3236-.75888-.57246-.22829-.22409-.40582-.52274-.53144-.87117-.12665-.34849-.20346-.74665-.20346-1.16981,0-.42311.07681-.82126.20346-1.16975.12562-.34843.2782-.6472.50551-.89606.20242-.24886.45573-.44794.75985-.57234.30315-.12446.60727-.19914.93635-.19914.45567,0,.83556.07468,1.16464.24886.35397.17418.60727.448.83465.82138v-.02495h1.44284v-1.26938h-.8097c-.35397-.34837-.73387-.59729-1.18959-.77148-.45567-.17431-.93629-.24892-1.44284-.24892-.5315,0-1.03805.09957-1.49378.29865-.45567.19914-.86052.49778-1.21449.84622-.355.34849-.6332.7716-.83563,1.26938s-.30315,1.04529-.30315,1.64271c0,.59729.10073,1.1448.2782,1.64258.20242.49791.45573.94578.8097,1.29434.32908.37332.73393.64702,1.21552.84615.48062.19914.98717.29865,1.54362.29865.3799,0,.73387-.04978,1.08887-.14929Zm4.8591-9.73159c.1017.09951.20346.17425.32908.22397.1017.04985.25324.07468.3799.07468s.2533-.02483.37996-.07468c.1017-.04972.20242-.12446.30412-.22397.07577-.09951.15154-.19914.20242-.32354.04985-.12446.07577-.24892.07577-.37332,0-.12446-.02593-.24892-.07577-.37338-.05088-.09951-.10176-.19908-.20242-.29865-.07583-.07468-.17753-.14935-.30412-.19908-.12665-.04978-.2533-.07474-.37996-.07474s-.25324.02495-.3799.07474c-.12562.04972-.22738.1244-.32908.19908-.07577.07474-.15154.17425-.20242.29865-.04985.12446-.07577.24892-.07577.37338,0,.1244.02593.24886.07577.37332.05088.1244.1017.22403.20242.32354Zm-.02489,8.41249h-1.13878v1.26938h3.79713v-1.26938h-1.19057v-6.3964h-2.60657l-.02593.02477v1.26938h1.1647v5.10224Zm9.34032,1.24443c-.50557.17418-1.063.24892-1.64532.24892-.5315,0-1.03702-.09951-1.49274-.24892-.45567-.17418-.86155-.42311-1.19057-.7716-.32908-.34837-.58135-.77148-.78377-1.26926-.20346-.49778-.27923-1.09514-.27923-1.76717,0-.54751.07577-1.07025.22835-1.54308.15161-.49778.40485-.92089.70897-1.26938.30315-.34837.708-.64714,1.16367-.87111.45573-.19914,1.0131-.32354,1.62037-.32354s1.11382.07468,1.51867.24886.73393.39828.98717.69692c.2533.29865.45573.62218.58238.99557.12659.37332.22732.74665.2782,1.11997.02593.19914.05082.37332.05082.57246v.57246h-5.74609c.00006.21338.00152.40509.05039.57246.02593.17425.07577.34843.15258.52262.20242.49778.50551.87111.91036,1.12003.40588.24886.88651.37332,1.41795.37332.40485,0,.8097-.04978,1.21455-.17418.3799-.09957.81067-.27375,1.24047-.52262l.58232.94566c-.5315.34849-1.06294.59741-1.56949.7716Zm-3.92281-4.70403h4.12524c0-.27375-.07583-.54757-.15161-.79643-.07577-.24892-.17747-.44806-.35397-.62225-.15258-.17418-.355-.32354-.58232-.42311-.22525-.09817-.52444-.14698-.8733-.14832-.3239.00134-.62389.05015-.87372.14832-.2533.09957-.45573.22397-.63223.39828-.17747.17418-.30412.37332-.43078.62225-.10066.24886-.17747.52262-.22732.82126Zm8.42892,2.41418c0,.47295.05082.87111.12665,1.19471.10066.32354.22732.57246.40485.7716.17747.17418.40479.32354.65809.39815.25324.07468.55639.1244.9114.1244.3799,0,.68305-.02483.96124-.09951.27923-.07468.5315-.17418.78475-.29865l-.32902-.92083c-.1765.09951-.35403.14923-.5315.19902-.15154.04985-.35397.04985-.55639.04985s-.37996-.02489-.5315-.09963c-.15258-.07468-.27923-.19914-.355-.39815-.07577-.17431-.07577-.42317-.07577-.72181v-4.43027h1.89857v-1.11997h-1.92352v-2.46409l-1.39202.6472v1.84178h-1.29129v1.12003h1.24047v4.20618Zm7.82165,2.41443l-.83563,2.11554h-.98717v1.26938h3.23977v-1.26938h-1.11382l3.56976-8.61163h.8097v-1.26932h-3.01239v1.26932h.93732l-1.97537,4.90311-1.84769-4.90311h.93732v-1.26932h-3.03832v1.26932h.65809l2.65842,6.49609Zm12.37766-6.64544h1.84769v-1.11997h-1.84769l.02489-.02495v-1.24443c0-.49778.1017-.87111.355-1.12003.25324-.24886.58232-.37332,1.01212-.37332.30412,0,.55737.02483.83556.07468.2533.07462.45573.14929.6332.22397l.4298-.99557c-.10073-.04972-.22738-.09951-.35403-.14935-.12659-.04978-.27917-.07462-.45567-.12446-.17747-.04972-.355-.07468-.58232-.09951-.22835-.02495-.45573-.02495-.73393-.02495-.3799,0-.73393.07474-1.06294.17431-.30412.09957-.58238.27375-.81067.49778-.22738.22397-.40485.49778-.5315.82126-.12665.34849-.20242.72188-.20242,1.16988v1.19471h-1.31625v1.11997h1.31625v5.27643h-1.18959v1.26938h3.87291v-1.26938h-1.24041v-5.27643Zm3.29059,1.07037c.20242-.49778.48062-.92101.83563-1.29434.35397-.34837.78475-.62218,1.26537-.82132.48062-.19908,1.0131-.29865,1.62037-.29865s1.13871.09957,1.61934.29865c.48166.19914.9114.47295,1.2664.82132.35397.34849.60727.7716.8097,1.26938s.30412,1.04529.30412,1.64271c0,.59729-.1017,1.1448-.30412,1.64258s-.45573.92101-.8097,1.29434c-.355.34837-.75979.64702-1.2664.84615-.48062.19914-1.03702.29865-1.61934.29865s-1.13975-.09951-1.64532-.29865c-.4816-.19914-.9114-.47283-1.26634-.82132-.35403-.34843-.60727-.77154-.8097-1.26926-.20242-.49778-.30315-1.04541-.30315-1.64271v-.02495c0-.59729.10073-1.1448.30315-1.64258Zm1.21552,1.66754c0,.448.07577.84615.20242,1.19465.12665.34843.30315.64708.53144.89594.22738.24892.48068.44806.78481.57246.30309.12446.63217.19914.96124.19914s.68402-.07468.98717-.19914c.30412-.1244.58232-.32354.81067-.57246.22738-.24886.40485-.54751.5315-.89594.12665-.34849.20242-.74665.20242-1.19465,0-.44806-.07577-.87111-.20242-1.24449-.12665-.34849-.30412-.67197-.5315-.896-.22835-.24892-.4816-.42311-.78475-.54757-.30412-.1244-.6332-.17418-.98717-.17418-.355,0-.65815.07456-.96228.17418-.30412.12446-.55639.29865-.78475.54757-.22732.24886-.40485.54751-.5315.896-.12659.34843-.20242.77154-.20242,1.24449h-.02489Zm13.7188-2.24024v-1.66754h-1.46779c-.20242,0-.37996.02483-.55743.07468-.15154.04978-.30315.12446-.45469.22397-.12665.09951-.2533.22397-.3799.34843-.10176.14935-.20242.29877-.30418.448v-1.04529h-2.55666v1.26938h1.11382v5.10218h-1.11382v1.26938h3.94874v-1.26938h-1.36713v-3.68357c.05088-.27381.12665-.49778.2533-.69692.1017-.19908.25324-.34837.40582-.47283.15154-.12446.32908-.22403.50557-.27381.17747-.07468.35494-.09951.53144-.09951v.47283h1.4429Zm9.18871,4.77877h-1.08783v-8.66135h1.08783v-1.26938h-3.72033v1.26938h1.11382v8.66135h-1.11382v1.26938h3.72033v-1.26938Zm5.59406.00012h-1.11382v-4.48012c.30412-.22397.6332-.42311.96222-.57234.35403-.14941.68305-.22409,1.01212-.22409.58232,0,1.03805.14935,1.34217.448.30315.3236.45567.74671.45567,1.34406v3.48449h-1.11376l-.02593.04972v1.26938h3.72136v-1.26938h-1.11382v-3.65861c0-.49791-.07577-.92101-.20242-1.29434s-.30412-.67197-.55639-.89594c-.2533-.24886-.5315-.39828-.88651-.52268-.35397-.12446-.73393-.17425-1.16464-.17425-.25233,0-.48068.02483-.708.07474-.22835.04972-.45573.1244-.65809.22391-.20242.07474-.40588.19914-.60831.3236-.1765.12446-.35397.24886-.53144.39815v-.89594h-2.53079v1.26926h1.11382v5.10237h-1.11382v1.26926h3.72039v-1.26926Zm10.52991,1.44345c-.5315,0-1.03702-.09963-1.49274-.27381-.45567-.17418-.86052-.448-1.21552-.79643-.35397-.34849-.60727-.7716-.8097-1.26938s-.2782-1.07025-.2782-1.74221c0-.59735.10073-1.11997.2782-1.61775s.45573-.89606.78475-1.24443c.32908-.34855.73393-.62225,1.21455-.79655.48166-.19902,1.0131-.27369,1.59542-.27369.37892,0,.73393.04972,1.063.1244.30315.07468.63217.22397.9114.42311v-2.93692h-1.08893v-1.26938h2.53177v10.2295h1.16373v1.26926h-2.60657v-.62218c-.2533.24886-.55743.448-.88651.59735-.35397.14929-.73387.19914-1.16464.19914Zm-.86058-1.41874c.30418.12446.65815.17418,1.01316.17418l.05082.04985c.4298,0,.78377-.04985,1.063-.17431.2782-.1244.55639-.29865.78475-.54751v-4.28086c-.2533-.19914-.55743-.34849-.88651-.448-.32902-.09963-.68305-.14941-1.01206-.14941-.32908,0-.65815.04978-.96228.17425-.30412.1244-.55639.29871-.78475.52268-.22738.22403-.40485.52274-.5315.84628-.12665.34843-.20242.72175-.20242,1.14486,0,.47295.05088.896.17753,1.24443.12659.34849.30309.67209.50551.896.22835.24892.48166.42311.78475.54757Zm10.3026,1.36889c.4816,0,.93635-.07468,1.36707-.22409.40485-.14923.8097-.34837,1.1647-.62218v.72181h2.32837v-1.26938h-.88547v-6.39652h-2.55672v1.24443h1.06294v4.6543c-.30412.19914-.63314.34843-.98717.44806-.35397.1244-.68305.17418-.98717.17418-.5315,0-.93635-.14935-1.21552-.448-.2782-.29865-.4298-.72175-.4298-1.31917v-4.77864h-2.58161v1.26926h1.0879v3.6588c0,.49778.05088.94578.17753,1.29415.12659.37338.30309.67203.53144.89606.22738.24892.50655.39828.83563.52274.32908.1244.68305.17418,1.0879.17418Zm1.39202-7.79036h.02593v-.02483l-.02593.02483Zm9.99841.04997c-.37892-.14935-.86052-.22403-1.44284-.22403-.4298,0-.8097.07468-1.16367.17418-.355.12446-.65815.27381-.88651.47295-.25324.19914-.42974.448-.55639.72175-.12665.27381-.17747.57246-.17747.896,0,.47289.15154.89606.45567,1.21954.30412.34849.75985.62231,1.39202.82132l1.51867.54763c.40485.14929.68402.29865.86052.47289.17753.17418.2533.37332.2533.62218,0,.14941-.05088.29865-.12665.42311s-.20242.22409-.32908.3236c-.12659.07468-.30309.14935-.48062.19914-.20242.04972-.3799.07468-.58232.07468s-.40485-.04985-.60727-.07468c-.20242-.02495-.3799-.09963-.53144-.19914-.15258-.09951-.27826-.22397-.37996-.37332-.1017-.14941-.15154-.34843-.15154-.54757h-1.59548v1.26926h.81073c.22732.3236.53144.57246.9114.7716.37892.19914.88547.29865,1.51861.29865.45573,0,.86058-.07456,1.21455-.17418.355-.12446.68408-.27369.93635-.47283.27917-.19914.45567-.44806.60825-.72188.12665-.29865.20242-.59729.20242-.94578,0-.52262-.15258-.94572-.45573-1.31905-.30412-.37332-.78475-.64714-1.44284-.87117l-1.5446-.52262c-.37892-.12446-.65809-.27381-.8097-.42311-.17747-.14935-.25324-.34849-.25324-.59741,0-.14923.02593-.27369.1017-.39815.05082-.09963.15154-.22403.2782-.29871.12665-.09957.2782-.12446.45567-.19908.17753-.07468.35403-.07468.55645-.07468s.3799.02483.58232.07468c.20242.04978.3799.09951.5315.19908.15252.07468.27917.19908.3799.34849l.02593.04972c.10073.14941.15154.3236.15154.52274h1.56955v-1.26938h-.75985c-.30315-.37332-.65809-.64714-1.03805-.79643Zm4.10132,5.30126c0,.47295.05082.87111.12665,1.19471.10066.32354.22732.57246.40479.7716.17753.17418.40485.32354.65815.39815.25324.07468.55639.1244.9114.1244.3799,0,.68305-.02483.96124-.09951.27923-.07468.53248-.17418.78475-.29865l-.32902-.92083c-.1765.09951-.35403.14923-.5315.19902-.15161.04985-.35397.04985-.55639.04985s-.37996-.02489-.5315-.09963c-.15258-.07468-.2782-.19914-.355-.39815-.07577-.17431-.07577-.42317-.07577-.72181v-4.43027h1.87367v-1.11997h-1.89863v-2.46409l-1.39202.6472v1.84178h-1.29129v1.12003h1.24047v4.20618Zm8.96036,1.02046h-1.36707v-3.68357c.05088-.27381.15258-.49778.25324-.69692.10176-.19908.2533-.34837.40485-.47283.15258-.12446.32908-.22403.50655-.27381.17753-.07468.35403-.09951.5315-.09951v.47283h1.4429v-1.66754h-1.46779c-.20242,0-.37996.02483-.55743.07468-.1765.04978-.32908.12446-.48062.22397-.12665.09951-.2533.22397-.37996.34843-.10066.14935-.20236.29877-.30309.448v-1.04529h-2.55672v1.26938h1.11382v5.10218h-1.11382v1.26938h3.97363v-1.26938Zm4.53106.02495h-1.13871v1.26938h3.79713v-1.26938h-1.18959v-6.3964h-2.60754l-.02593.02477v1.26938h1.16464v5.10224Zm.02593-8.41249c.10073.09951.20242.17425.32908.22397.12562.04985.2782.07468.40485.07468s.25324-.02483.3799-.07468c.10073-.04972.20242-.12446.30315-.22397.1017-.09951.17747-.19914.22835-.32354.04985-.12446.07577-.24892.07577-.37332,0-.12446-.02593-.24892-.07577-.37338-.07681-.09951-.12665-.19908-.22835-.29865-.07577-.07468-.17747-.14935-.30315-.19908-.12665-.04978-.25324-.07474-.3799-.07474-.15258,0-.27923.02495-.40485.07474-.12665.04972-.22835.1244-.32908.19908-.07675.07474-.15252.17425-.2034.29865-.07577.12446-.07577.24892-.07577.37338,0,.1244.02593.24886.07577.37332.05088.1244.12665.22403.2034.32354Zm5.31483,9.70676c-.32908-.1244-.60727-.27381-.83459-.47295-.22835-.19902-.43078-.44788-.55743-.72169s-.20242-.54757-.20242-.87111c0-.3236.05088-.62225.15154-.87111.10176-.24892.22835-.47295.40485-.6472.17753-.17418.355-.34837.58238-.47283.22829-.12446.45567-.22403.70897-.29865.25324-.07468.48062-.12446.75979-.17431.2533-.02483.50557-.04972.73393-.04972.3799,0,.68305,0,.93629.02489.2533,0,.48062.04978.68305.09951v-.62218c0-.27375-.02489-.49778-.10066-.69692-.07583-.19902-.20242-.37332-.35403-.49778-.15252-.12446-.32902-.22397-.53248-.29865-.20242-.07468-.42974-.09951-.70794-.09951-.2533,0-.48166,0-.68408.04972-.20242.04978-.42974.07474-.60727.12446-.20242.04978-.3799.12446-.53144.17418-.15161.07474-.30412.12446-.40485.19914l-.48166-.94578c.20346-.12446.40588-.22397.6332-.32354.22835-.09957.45573-.19914.70897-.24892.2533-.07468.50655-.12446.75882-.17418.2533-.04978.50655-.07468.75985-.07468.45567,0,.88547.04972,1.24047.14935.3799.09951.68305.27369.93629.49778.2533.22397.45573.49778.58232.84615.12665.34855.20242.74671.20242,1.21966v3.8328h.88651v1.26938h-2.32934v-.69692l-.02495.02495c-.30412.27381-.6332.49778-1.0131.67197-.35397.17425-.78475.24892-1.24047.24892-.37892,0-.75882-.04978-1.06294-.17425Zm-.07577-1.66754c.07577.14929.17747.27375.32908.37338.15154.09951.30412.17418.50655.22391.20242.04978.40485.07474.65809.07474l-.05088.02483c.17753,0,.37996,0,.58238-.07462.20242-.07468.3799-.09963.53144-.17431.17753-.07456.32908-.17418.48062-.27369.15258-.09963.2533-.19914.355-.3236v-1.71738h-1.64526c-.27923,0-.5315.02495-.75985.09963-.22738.04972-.4298.14935-.58232.24886-.1765.12446-.30315.24892-.37892.42311-.1017.17418-.12665.37332-.12665.57246s.04985.37332.10073.52268Zm11.06141.37326h-1.18966v-10.2295h-2.60651v1.26938h1.16367v8.96012h-1.16367v1.26926h3.79616v-1.26926Zm11.03646-.04978h.88644v1.26938h-2.32934v-.69692l-.04985.02495c-.30412.27381-.6332.49778-1.0131.67197-.37892.17425-.78481.24892-1.24047.24892-.37892,0-.75882-.04978-1.06294-.17425-.32908-.1244-.60727-.27381-.83465-.47295-.22835-.19902-.43078-.44788-.55737-.72169-.12665-.27381-.20242-.54757-.20242-.87111,0-.3236.05082-.62225.15154-.87111.1017-.24892.22835-.47295.40485-.6472.17747-.17418.355-.34837.58232-.47283.22835-.12446.45573-.22403.70897-.29865.2533-.07468.48062-.12446.75985-.17431.25227-.02483.50551-.04972.73387-.04972.37996,0,.68305,0,.93635.02489.25324,0,.48062.04978.68305.09951v-.62218c0-.27375-.02495-.49778-.10073-.69692-.07577-.19902-.20242-.37332-.35397-.49778-.15258-.12446-.32908-.22397-.53248-.29865-.20242-.07468-.4298-.09951-.708-.09951-.25324,0-.4816,0-.68402.04972-.20242.04978-.4298.07474-.60727.12446-.20242.04978-.3799.12446-.5315.17418-.15154.07474-.30412.12446-.40485.19914l-.45567-.94578c.20242-.12446.40485-.22397.63217-.32354.22835-.09957.45573-.19914.70897-.24892.2533-.07468.50655-.12446.75985-.17418.25324-.04978.50655-.07468.75882-.07468.45573,0,.88651.04972,1.24047.14935.3799.09951.68402.27369.93629.49778.2533.22397.45573.49778.58238.84615.12659.34855.20242.74671.20242,1.21966v3.8328Zm-1.51867-2.19021h-1.64532c-.2782,0-.53144.02495-.75882.09963-.22835.04972-.43078.14935-.58232.24886-.17753.12446-.30412.24892-.37996.42311-.10066.17418-.12659.37332-.12659.57246s.02593.37332.1017.52268c.07577.14929.1765.27375.32908.37338.15154.09951.30309.17418.50551.22391.20242.04978.40588.07474.65815.07474l-.02495.02483c.17747,0,.3799,0,.55743-.07462.1765-.07468.37892-.09963.53144-.17431.1765-.07456.32908-.17418.48062-.27369.15161-.09963.2533-.19914.35403-.3236v-1.71738Zm11.79631-1.36877c0-.49791-.07583-.92101-.20242-1.29434-.12665-.37332-.30418-.67197-.55743-.89594-.2533-.24886-.5315-.39828-.88547-.52268-.355-.12446-.73393-.17425-1.1647-.17425-.25324,0-.48062.02483-.70897.07474-.22732.04972-.45567.1244-.65809.22391-.20242.07474-.40485.19914-.60727.3236-.17747.12446-.35397.24886-.5315.39815v-.89594h-2.53177v1.26926h1.11382v5.10237h-1.11382v1.26926h3.72142v-1.26926h-1.11382v-4.48012c.30412-.22397.63314-.42311.96222-.57234.35397-.14941.68305-.22409,1.01212-.22409.58232,0,1.03805.14935,1.34114.448.30418.3236.45573.74671.45573,1.34406v3.48449h-1.11382l-.02495.04972v1.26938h3.72136v-1.26938h-1.11376v-3.65861Zm11.06135,3.60877v1.26926h-2.60754v-.62218c-.25227.24886-.55639.448-.88547.59735-.35397.14929-.73393.19914-1.16464.19914-.5315,0-1.03805-.09963-1.49274-.27381-.45573-.17418-.86155-.448-1.21552-.79643-.35403-.34849-.60727-.7716-.8097-1.26938s-.27923-1.07025-.27923-1.74221c0-.59735.1017-1.11997.27923-1.61775.1765-.49778.45567-.89606.78475-1.24443.32908-.34855.73393-.62225,1.21455-.79655.48062-.19902,1.0131-.27369,1.59444-.27369.3799,0,.7349.04972,1.06392.1244.30315.07468.63223.22397.91042.42311v-2.93692h-1.0879v-1.26938h2.53079v10.2295h1.16464Zm-2.60754-4.75381c-.25227-.19914-.55639-.34849-.88547-.448-.32908-.09963-.68305-.14941-1.01212-.14941-.32902,0-.65809.04978-.96222.17425-.30412.1244-.55743.29871-.78475.52268-.22738.22403-.40485.52274-.5315.84628-.12665.34843-.20242.72175-.20242,1.14486,0,.47295.05088.896.17747,1.24443.12568.34849.30315.67209.50557.896.22835.24892.4816.42311.78475.54757.30412.12446.65815.17418,1.0131.17418l.04991.04985c.43072,0,.78475-.04985,1.06392-.17431.2782-.1244.55645-.29865.78377-.54751v-4.28086Zm-180.70769,22.89796h1.16464v1.26938h-3.79713v-1.26938h.98717l-.93629-2.53865h-4.48024l-.9114,2.53865h1.21455v1.26938h-3.79713v-1.26938h1.0131l3.64462-9.93073h2.27846l3.61966,9.93073Zm-3.01239-3.75812l-1.82279-5.00274-1.77094,5.00274h3.59374Zm12.93503-.49791c.17747.47283.2533.99557.2533,1.56803,0,.62225-.1017,1.16975-.30412,1.69243-.20242.49778-.45573.94584-.8097,1.29421-.355.37332-.75985.64714-1.24047.84628-.48062.19908-1.01212.29865-1.56949.29865-.40485,0-.75888-.04972-1.0879-.1244-.30412-.07474-.60831-.17425-.9114-.3236v2.46409h1.24041v1.26926h-3.79713v-1.26926h1.0879v-8.58679h-1.11382v-1.26938l.05088.02495h2.53177v.64714c.32902-.24886.70794-.448,1.11382-.59741.40485-.14935.80964-.22397,1.24041-.22397.5315,0,1.01212.09957,1.44193.27375.43072.19914.81067.448,1.13975.79649.30309.34843.55639.74671.73387,1.21954Zm-1.21552,1.64271c0-.42311-.07577-.82132-.20242-1.14492s-.30315-.62225-.5315-.84622c-.22732-.22403-.48062-.39822-.78475-.52268-.30315-.12446-.60727-.17418-.96124-.17418v-.04978c-.3799,0-.73393.07462-1.06294.22397-.355.14935-.6332.34843-.88651.59729v4.13157c.17753.17431.40485.3236.73393.44806.30412.12446.70897.19914,1.18959.19914.32908,0,.65809-.04978.93732-.17425.30315-.1244.58135-.29865.8097-.54763.22732-.24886.40485-.54751.55639-.89594.15258-.34849.20242-.7716.20242-1.24443Zm10.83404-1.64271c.17753.47283.2533.99557.2533,1.56803,0,.62225-.10073,1.16975-.30412,1.69243-.20242.49778-.45469.94584-.8097,1.29421-.35403.37332-.75882.64714-1.24047.84628-.48062.19908-.98717.29865-1.56949.29865-.40485,0-.75888-.04972-1.0879-.1244-.30412-.07474-.60727-.17425-.9114-.3236v2.46409h1.24041v1.26926h-3.79713v-1.26926h1.08893v-8.58679h-1.11382v-1.26938l.04985.02495h2.53177v.64714c.32902-.24886.70897-.448,1.11382-.59741.40485-.14935.8097-.22397,1.24041-.22397.5315,0,1.01212.09957,1.4429.27375.4298.17431.8097.448,1.13878.79649.30412.34843.55737.74671.73387,1.21954Zm-1.21455,1.64271c0-.42311-.05082-.82132-.20236-1.14492-.12665-.3236-.30418-.62225-.5315-.84622-.22835-.22403-.48166-.39822-.78475-.52268-.30412-.12446-.60831-.17418-.96228-.17418v-.04978c-.3799,0-.73393.07462-1.06294.22397-.355.14935-.6332.34843-.88651.59729v4.13157c.17753.17431.40485.3236.7349.44806.30315.12446.708.19914,1.18959.19914.32908,0,.65815-.04978.93635-.17425.30315-.1244.58232-.29865.8097-.54763.22835-.24886.40485-.54751.55743-.89594.12659-.34849.20236-.7716.20236-1.24443Zm5.46741-7.59123h-2.58161v1.26932h1.16464v8.93516h-1.16464v1.29428h3.79713v-1.29428h-1.21552v-10.20449Zm5.16426,3.83298h-2.60754l-.02495.02489v1.26938h1.16367v5.10224h-1.13871v1.26938h3.79713v-1.26938h-1.18959v-6.39652Zm-.355-3.584c-.12665-.04985-.2533-.07468-.3799-.07468-.12665,0-.25227.02483-.37892.07468-.12665.04978-.22835.12446-.32908.19908-.07681.07468-.15258.17431-.20242.29871-.07675.12446-.07675.24892-.07675.37332,0,.12446.02593.24892.07675.37338.04985.1244.12562.22391.20242.32354.10073.09951.20242.17425.32908.22397.10073.04978.25227.07468.37892.07468.12659,0,.25324-.02489.3799-.07468.1017-.04972.20242-.12446.30412-.22397.10073-.09963.17747-.19914.22738-.32354.05082-.12446.07577-.24892.07577-.37338,0-.1244,0-.27381-.07577-.37332-.07583-.09957-.12665-.19914-.22738-.29871-.07577-.07462-.17747-.14929-.30412-.19908Zm9.89775,6.47114c.02489.19914.05082.37332.05082.57246v.54757h-5.74658c0,.22391,0,.42305.05088.59729.02489.17418.07577.34849.15154.52268.20242.49778.50655.87111.9114,1.12003.43078.24886.88644.37332,1.41795.37332.40485,0,.8097-.04978,1.21455-.17425.3799-.09957.81067-.27381,1.24047-.52268l.58232.94578c-.5315.34843-1.063.59729-1.56955.7716-.53144.17418-1.0879.24892-1.64526.24892-.5315,0-1.03805-.07474-1.49372-.24892-.45573-.17431-.86058-.42317-1.18966-.7716-.32902-.34837-.58232-.7716-.78475-1.26938-.1765-.49778-.2782-1.09508-.2782-1.76705,0-.54763.07577-1.07025.22835-1.5432.15154-.49778.40485-.92083.708-1.26926.30412-.34849.70897-.64714,1.16464-.87111.45573-.19914,1.01212-.3236,1.64532-.3236s1.08887.07474,1.49372.24892.73393.39815.98717.69692c.2533.29865.45573.62218.58232.99551.12665.37338.22738.74671.27826,1.12003Zm-1.49378.04978c0-.27381-.07577-.54757-.15154-.79643-.07577-.24892-.17747-.44806-.355-.62225-.15154-.17431-.35397-.3236-.58135-.42317-.22525-.09817-.52438-.14692-.87324-.14826-.32488.00134-.62389.05009-.87372.14826-.2533.09957-.45573.22403-.6332.39822-.1765.17425-.30315.37338-.4298.62225-.1017.24892-.17747.52274-.22835.82138h4.12621Zm10.70744,3.45948h1.16464v1.26938h-2.60754v-.62225c-.25324.24892-.55639.44806-.88547.59729-.32908.14941-.7349.19914-1.16464.19914-.5315,0-1.03805-.09951-1.51867-.27381-.45573-.17418-.86058-.44788-1.21552-.79643-.35403-.34837-.60727-.7716-.8097-1.26932-.20242-.49778-.2782-1.07018-.2782-1.74228,0-.59729.10066-1.11997.2782-1.61775.17747-.49778.43078-.89594.78475-1.24443.32908-.34843.73393-.62225,1.21455-.79643.4816-.19914,1.0131-.27381,1.59542-.27381.37892,0,.73393.04972,1.063.12446.30412.07468.63314.22403.91134.42305v-2.93686h-1.08887v-1.26932h2.55672v10.22938Zm-1.4429-4.75381c-.25324-.19914-.55639-.34837-.88547-.448-.32908-.09951-.68402-.14929-1.0131-.14929s-.65809.04978-.96124.17418c-.30412.12446-.55743.29865-.78475.52274-.22835.22397-.40485.52262-.5315.84615-.12665.34843-.20242.72175-.20242,1.14492,0,.47289.04985.89594.1765,1.24449.12665.34837.30412.67197.50655.89594.22738.24886.48062.42317.78475.54763.30315.12446.65815.17418,1.01212.17418l.05088.04978c.43072,0,.78475-.04978,1.06294-.17425.2782-.1244.55743-.29865.78475-.54751v-4.28098Zm15.18762,4.48012l-3.72136-9.68187h-3.69544v1.4188h1.11382v8.51194h-1.11382v1.29434h3.79713v-1.29434h-1.18959v-8.61156l4.12621,9.9059h1.31625l4.07533-9.88101v8.58667h-1.24047v1.29434h3.77127v-1.29434h-1.0879v-8.51194h1.0879v-1.4188h-3.49307l-3.74625,9.68187Zm15.2634.22403h.88644v1.26938h-2.32934v-.67209c-.30315.27381-.63217.49778-1.01212.67209-.3799.17418-.78475.24892-1.24041.24892-.37996,0-.75888-.04991-1.063-.17431-.32902-.12446-.60727-.27375-.83563-.47289-.22732-.19914-.42974-.448-.55639-.72169-.12665-.27381-.20242-.54763-.20242-.87123,0-.32348.04985-.62225.15161-.87111.1017-.24892.22732-.47283.40479-.64708.17753-.17418.355-.34849.58238-.47295.22732-.1244.45567-.22397.70897-.29865.25324-.07468.48062-.1244.75882-.17418.2533-.02495.4816-.04978.7349-.04978.37892,0,.68305,0,.93635.02483.25324,0,.48062.04978.68305.09963v-.62218c0-.27381-.02495-.49778-.12665-.69692-.07577-.19914-.20242-.37332-.35397-.49778-.15161-.12446-.32908-.22409-.5315-.29865-.20242-.07468-.43078-.09963-.70897-.09963-.2533,0-.48062,0-.68305.04978-.22835.02489-.43078.07468-.60825.1244-.20242.04991-.37892.12446-.5315.17431-.15154.07462-.30315.12446-.40485.19908l-.48062-.94572c.20242-.12446.40485-.22403.63217-.3236.22835-.09957.45573-.19908.70897-.24886.2533-.07468.50655-.12446.75985-.17431.2533-.04978.50557-.07456.75882-.07456.45573,0,.88651.04972,1.24047.14923.3799.09963.68402.27381.93629.49778.2533.22409.45573.49778.58238.84628.12659.34843.20242.74671.20242,1.21954v3.83292Zm-1.46785-2.19021h-1.64526c-.2782,0-.5315.02489-.75985.09951-.22732.04985-.42974.14935-.58135.24886-.17747.12446-.30412.24892-.3799.42323-.1017.17418-.12665.37332-.12665.57234,0,.19914.02495.37332.10073.52274.07681.14935.17747.27381.32908.37332.15258.09963.30412.17418.50655.22403.20242.04978.40485.07462.65809.07462l-.02489.02489c.1765,0,.3799,0,.55639-.07468.17747-.07468.3799-.09951.5315-.17418.17747-.07468.32902-.17418.4816-.27381.15154-.09951.25227-.19914.35397-.3236v-1.71726Zm7.77083,2.56348c-.15154.04972-.35397.04972-.55639.04972s-.37996-.02489-.5315-.09951c-.15258-.07468-.27923-.19914-.355-.39828-.07577-.17418-.10066-.42305-.07577-.72169v-4.43034h1.87367v-1.12003h-1.89857v-2.46397l-1.39305.64708v1.84184h-1.29032v1.11997h1.24047v4.2063c0,.47283.02489.87111.12665,1.19471.10066.32348.22732.57234.40485.77148.1765.17418.40479.32354.65809.39828.2533.07468.55639.1244.9114.1244.37892,0,.68305-.02489.96124-.09951.27923-.07468.5315-.17431.78475-.29871l-.32902-.92089c-.1765.09951-.35403.14935-.5315.19914Zm9.94857-3.95738c0-.49778-.07675-.92089-.20242-1.29421-.12659-.37332-.30412-.67197-.55737-.89606-.2533-.24886-.5315-.42311-.88547-.52262-.355-.1244-.7349-.17431-1.1647-.17431-.22835,0-.45567.02495-.68402.07474-.20242.04972-.4298.09957-.63223.19908-.20242.09957-.40485.19914-.58232.3236-.20242.09951-.35397.24892-.50655.37332h-.04985v-4.67914h-2.53177l-.02495.02483v1.26938h1.0879v8.96012h-1.18959v1.26926h3.79713v-1.26926h-1.16464v-4.48012c.30412-.22397.63314-.42311.96222-.57234.35403-.14941.68305-.22409,1.01212-.22409.58232,0,1.03805.14941,1.34217.44806.30315.32354.45567.74665.45567,1.34394v3.48455h-1.08887v1.26926h3.79713v-1.26926h-1.18959v-3.65874Zm9.5677.12452c.02489.19914.05082.37332.05082.57246v.54757h-5.74658c0,.22391,0,.42305.05088.59729.02593.17418.07577.34849.15154.52268.20346.49778.50655.87111.9114,1.12003.43078.24886.88651.37332,1.41795.37332.40485,0,.8097-.04978,1.21455-.17425.3799-.09957.81067-.27381,1.24047-.52268l.58232.94578c-.5315.34843-1.06294.59729-1.56949.7716-.5315.17418-1.0879.24892-1.64532.24892-.5315,0-1.03805-.07474-1.49372-.24892-.45469-.17431-.86058-.42317-1.18959-.7716-.32908-.34837-.58135-.7716-.78481-1.26938-.1765-.49778-.2782-1.09508-.2782-1.76705,0-.54763.07577-1.07025.22835-1.5432.15161-.49778.40485-.92083.708-1.26926.30412-.34849.70897-.64714,1.16464-.87111.45573-.19914,1.0131-.3236,1.64532-.3236.6332,0,1.08887.07474,1.49372.24892s.73393.39815.98717.69692c.2533.29865.45573.62218.58238.99551.12659.37338.22732.74671.2782,1.12003Zm-1.49378.04978c0-.27381-.07577-.54757-.15154-.79643-.07577-.24892-.20242-.44806-.35397-.62225-.15258-.17431-.355-.3236-.58232-.42317-.22525-.09817-.52444-.14692-.8733-.14826-.3239.00134-.62389.05009-.87372.14826-.2533.09957-.45573.22403-.63223.39822-.17747.17425-.30412.37338-.43078.62225-.12659.24892-.17747.52274-.22732.82138h4.12518Zm16.63052-.17431c0-.49791-.04985-.92101-.1765-1.29434s-.30412-.67197-.55743-.89594c-.25324-.24886-.53144-.39828-.88547-.52268-.35494-.12446-.73387-.17425-1.16464-.17425-.2782,0-.55743.02483-.8097.09957-.2533.07468-.50655.14935-.7349.27381-.25227.09951-.48062.24886-.68305.39815-.20242.14935-.40485.29871-.60727.47295-.22835-.42311-.55743-.74671-.96228-.94584-.42974-.19908-.9114-.29865-1.49372-.29865-.25227,0-.48062.02483-.70794.07474-.22835.04972-.45573.1244-.65815.22391-.20242.09957-.40485.19914-.60825.3236-.20242.12446-.37892.24886-.55639.39815v-.89594h-2.53177l-.04991.07468v1.26926h1.11382v5.10237h-1.11382v1.26926h3.72039v-1.26926h-1.11382v-4.48012c.30412-.22397.6332-.42311.96228-.57246.32902-.14929.68305-.22397,1.01212-.22397.58232,0,1.03799.14941,1.34211.44806.30315.32354.45573.74665.45573,1.34394v3.48455h-1.11382v1.26926h3.72039v-1.26926h-1.0879v-4.45517c.2782-.24892.58232-.44806.93629-.59741.35403-.17418.70897-.24886,1.063-.24886.58232,0,1.03799.14935,1.34211.448.30315.3236.45573.74665.45573,1.34406v3.48443h-1.11382v1.26938h3.72039v-1.26938h-1.11382v-3.65861Zm8.83474,3.58412h.88547v1.26938h-2.32837v-.69692l-.05082.02483c-.30315.27381-.63223.49778-1.01212.67209-.3799.17418-.78475.24892-1.24047.24892-.3799,0-.75979-.04991-1.06294-.17431-.32908-.12446-.60727-.27375-.83563-.47289-.22732-.19914-.42974-.448-.55639-.72169-.12665-.27381-.20242-.54763-.20242-.87123,0-.32348.04985-.62225.15154-.87111.10073-.24892.22738-.47283.40485-.64708.17753-.17418.35403-.34849.58238-.47295.22732-.1244.45567-.22397.70897-.29865.25227-.07468.48062-.1244.75882-.17418.25324-.02495.50655-.04978.73387-.04978.37996,0,.68408,0,.93732.02483.25233,0,.48062.04978.68305.09963v-.62218c0-.27381-.02489-.49778-.1017-.69692-.07577-.19914-.20242-.37332-.35397-.49778s-.32908-.22409-.5315-.29865c-.20242-.07468-.43078-.09963-.70897-.09963-.25324,0-.48062,0-.68305.04978-.22835.02489-.43078.07468-.60727.1244-.2034.04991-.3799.12446-.53248.17431-.15154.07462-.30309.12446-.40485.19908l-.45567-.94572c.20242-.12446.40582-.22403.6332-.3236.22732-.09957.45567-.19908.70897-.24886.25324-.07468.50551-.12446.75882-.17431.2533-.04978.50655-.07456.75985-.07456.45567,0,.88547.04972,1.24041.14923.37996.09963.68305.27381.93635.49778.25324.22409.45567.49778.58232.84628.12665.34843.20242.74671.20242,1.21954v3.83292Zm-1.51867-2.19021h-1.64526c-.2782,0-.5315.02489-.75985.09951-.22738.04985-.42974.14935-.58232.24886-.1765.12446-.30315.24892-.37892.42323-.1017.17418-.12665.37332-.12665.57234,0,.19914.02495.37332.10073.52274.07577.14935.17747.27381.32908.37332.15252.09963.30412.17418.50655.22403.20242.04978.40485.07462.65809.07462l-.02489.02489c.17644,0,.37886,0,.55639-.07468.17747-.07468.3799-.09951.53144-.17418.17753-.07468.32908-.17418.48068-.27381.15252-.09951.25324-.19914.35494-.3236v-1.71726Zm7.79572,2.56348c-.15154.04972-.35397.04972-.55639.04972s-.3799-.02489-.5315-.09951c-.15252-.07468-.2782-.19914-.35494-.39828-.07577-.17418-.10073-.42305-.07577-.72169v-4.43034h1.87361v-1.12003h-1.89857v-2.46397l-1.39202.64708v1.84184h-1.29129v1.11997h1.24041v4.2063c0,.47283.05088.87111.12665,1.19471.10073.32348.22738.57234.40485.77148.17747.17418.40485.32354.65809.39828.2533.07468.55645.1244.9114.1244.37996,0,.68305-.02489.96228-.09951.2782-.07468.5315-.17431.78377-.29871l-.32908-.92089c-.1765.09951-.35397.14935-.5315.19914Zm3.84801-10.37867c-.12665,0-.25324.02483-.3799.07468-.12665.04978-.22738.12446-.32908.19908-.07577.07468-.15154.17431-.20242.29871-.07577.12446-.07577.24892-.07577.37332,0,.12446.02495.24892.07577.37338.05088.1244.10073.22391.20242.32354.1017.09951.20242.17425.32908.22397.1017.04978.25324.07468.3799.07468s.2533-.02489.37996-.07468c.12562-.04972.22732-.12446.32902-.22397.10073-.09963.1765-.19914.22738-.32354.05082-.12446.07577-.24892.07577-.37338,0-.1244,0-.27381-.07577-.37332-.07577-.09957-.12665-.19914-.22738-.29871-.1017-.07462-.2034-.14929-.32902-.19908-.12665-.04985-.2533-.07468-.37996-.07468Zm.73393,3.65868h-2.60754l-.02495.02489v1.26938h1.1647v5.10224h-1.13975v1.26938h3.79713v-1.26938h-1.18959v-6.39652Zm7.72092-.02495c-.43078-.17418-.9114-.24886-1.41795-.24886-.5315,0-1.03805.09957-1.49372.29865-.45573.19914-.86058.49778-1.21455.84628-.355.34837-.6332.77148-.83563,1.26938-.20242.49778-.30412,1.04529-.30412,1.64258,0,.59741.07681,1.14492.27923,1.64271.1765.49778.45567.94578.78475,1.29421.32908.37332.75882.64714,1.21455.84628.48062.19902.98717.29865,1.54454.29865.37892,0,.75888-.04978,1.0879-.14935.32908-.07474.65815-.22397.93635-.39822.27923-.17425.5315-.39822.75985-.64714.22732-.24886.42974-.52268.58232-.84615l-1.18959-.57246c-.20242.448-.50655.79643-.86058,1.02034-.3799.22409-.78475.34855-1.29129.34855-.32908,0-.65809-.07468-.93629-.19914-.27923-.14941-.5315-.3236-.75985-.57246-.20242-.22397-.3799-.52262-.50655-.87111-.15161-.34843-.20242-.74671-.20242-1.16975,0-.42311.07675-.82138.20242-1.16975.12665-.34855.30412-.6472.50655-.89606.20242-.24892.45567-.448.75985-.57246.2782-.12446.60721-.19914.93629-.19914.45573,0,.83563.07468,1.1647.24886.32902.17425.58232.44806.80964.82138v-.02483h1.4429v-1.26938h-.8097c-.35494-.34849-.7349-.59741-1.18959-.7716Zm7.79572.07468c-.40485-.14935-.88547-.22397-1.44284-.22397-.45573,0-.83563.07462-1.18966.17425-.35397.1244-.65809.27381-.88541.47283-.2533.19914-.43078.448-.55743.72181-.12665.27375-.17753.57246-.17753.89594,0,.47295.15258.89606.45573,1.21966.30412.34837.75985.62218,1.39202.82132l1.51964.54757c.40485.14935.68305.29865.86058.47283.1765.17431.25324.37332.25324.62231,0,.14929-.05082.29865-.12665.42311-.07675.12446-.17747.22397-.32902.3236-.12665.07456-.30412.14923-.48166.19902-.20242.04985-.3799.07468-.58232.07468s-.40485-.02483-.60727-.07468c-.20242-.02483-.3799-.09951-.5315-.19902-.15154-.09963-.2782-.22409-.3799-.37338-.07577-.14935-.12665-.34849-.12665-.54763h-1.59444v1.26938h.8097c.22835.29865.53248.54757.9114.74665.3799.19914.88651.29865,1.51867.29865.45567,0,.86155-.07468,1.21552-.17418.35397-.12446.68305-.27381.93635-.47283.25324-.19914.45567-.448.60727-.72181.12659-.29865.20236-.59729.20236-.94584,0-.52262-.15154-.94578-.45469-1.31911-.30412-.37332-.78475-.64708-1.44284-.87111l-1.51971-.52262c-.37886-.12446-.65809-.27381-.80964-.42317-.17753-.14929-.2533-.34843-.2533-.59729,0-.14941.02593-.27381.1017-.39828.05088-.09951.15161-.22397.2782-.29865.12665-.09951.30418-.12446.45573-.19914.15154-.07462.35397-.07462.55639-.07462.17753,0,.355.02483.55743.07462.20242.04985.3799.09963.5315.19914.15154.07468.2782.19914.3799.34849l.02489.07462c.10176.14935.15258.32354.15258.52268h1.56852v-1.26938h-.75882c-.30412-.37332-.65809-.64702-1.03805-.79643Z" />
</svg>